<?xml version="1.0" standalone="no"?><!DOCTYPE svg PUBLIC "-//W3C//DTD SVG 1.1//EN" "http://www.w3.org/Graphics/SVG/1.1/DTD/svg11.dtd"><svg t="1529314211312" class="icon" style="" viewBox="0 0 1024 1024" version="1.1" xmlns="http://www.w3.org/2000/svg" p-id="1043" xmlns:xlink="http://www.w3.org/1999/xlink" width="32" height="32"><defs><style type="text/css"></style></defs><path d="M510.54537 62.365396c-247.496837 0-448.16002 200.663182-448.16002 448.16002 0 247.496837 200.663182 448.16002 448.16002 448.16002 247.495814 0 448.16002-200.663182 448.16002-448.16002C958.70539 262.97332 758.041184 62.365396 510.54537 62.365396L510.54537 62.365396zM603.595626 612.031251c13.836123-10.474562 31.090089-16.749476 49.800219-16.749476 45.714158 0 82.799798 37.030381 82.799798 82.855056 0 45.710065-37.030381 82.851986-82.799798 82.851986-45.653783 0-82.739423-37.08564-82.739423-82.851986l0-0.056282-211.141838-102.06763c-12.938684 8.348132-28.290323 13.277398-44.814672 13.277398-45.710065 0-82.800821-37.084617-82.800821-82.798774 0-45.711088 37.090756-82.795705 82.800821-82.795705 19.49296 0 37.363979 6.77838 51.53677 18.038842l204.362434-98.706069 0-0.060375c0-45.710065 37.08564-82.795705 82.739423-82.795705 45.714158 0 82.85608 37.030381 82.85608 82.795705 0 45.77044-37.08564 82.799798-82.85608 82.799798-18.710131 0-35.907815-6.274914-49.800219-16.749476l-206.15322 99.601462-0.167822 3.755534L603.595626 612.031251 603.595626 612.031251zM603.595626 612.031251" p-id="1044" fill="#1296db"></path></svg>