<?xml version="1.0" standalone="no"?><!DOCTYPE svg PUBLIC "-//W3C//DTD SVG 1.1//EN" "http://www.w3.org/Graphics/SVG/1.1/DTD/svg11.dtd"><svg t="1529557567737" class="icon" style="" viewBox="0 0 1024 1024" version="1.1" xmlns="http://www.w3.org/2000/svg" p-id="821" xmlns:xlink="http://www.w3.org/1999/xlink" width="32" height="32"><defs><style type="text/css"></style></defs><path d="M512 298.666667a213.333333 213.333333 0 0 1 213.333333 213.333333 213.333333 213.333333 0 0 1-170.666666 209.066667V896h-85.333334v-174.933333A213.333333 213.333333 0 0 1 298.666667 512a213.333333 213.333333 0 0 1 213.333333-213.333333m0 85.333333a128 128 0 0 0-128 128 128 128 0 0 0 128 128 128 128 0 0 0 128-128 128 128 0 0 0-128-128z" fill="#1296db" p-id="822"></path></svg>